# xmcd
#
# Track frame offsets: 
#        150
#        15521
#        33764
#        48829
#        64616
#        83133
#        100552
#        120459
#        132930
#        147171
#        160285
#        180973
#        199759
#        217265
#
# Disc length: 3157 seconds
#
# Revision: 0
# Processed by: cddbd v1.5.2PL0 Copyright (c) Steve Scherf et al.
# Submitted via: ExactAudioCopy v0.99pb5
#
DISCID=b00c530e
DTITLE=Rolf Zuckowski trifft Sternschnuppe - So eine Gaudi
DYEAR=2003
DGENRE=Pop
TTITLE0=I frei mi eifach so!
TTITLE1=Ein Kühlschrank ging Spazieren
TTITLE2=Ryrksnglynks
TTITLE3=Zum Kuckuck!
TTITLE4=Als ich ein Baby war
TTITLE5=Wir wollen alle in die Suppe!
TTITLE6=Na, Na, Nackidei
TTITLE7=Ich will tanzen!
TTITLE8=Im Orient
TTITLE9=Ich hab einen Walkman
TTITLE10=Vom Tegernsee zum Schimpansee
TTITLE11=Besuch auf dem Bauernhof (My Toot Toot)
TTITLE12=Es sang ein Sänger: Lalala
TTITLE13=Ritter-Reggae
EXTD=
EXTT0=
EXTT1=
EXTT2=
EXTT3=
EXTT4=
EXTT5=
EXTT6=
EXTT7=
EXTT8=
EXTT9=
EXTT10=
EXTT11=
EXTT12=
EXTT13=
PLAYORDER=
